<svg width="1200" height="699" viewBox="0 0 1200 699" fill="none" xmlns="http://www.w3.org/2000/svg">
<path d="M345.144 198.982C173.472 175.773 55.8569 233.943 18.5081 265.929H-1V691.787C29.0125 701.953 103.043 709.193 159.066 656.825C215.09 604.458 336.473 606.987 390.162 614.797C453.355 628.311 592.246 647.23 642.267 614.797C704.793 574.257 765.318 531.857 954.897 541.9C1106.56 549.933 1183.49 466.894 1203 424.37V0C1195.83 21.8198 1141.57 63.9718 981.908 58.0209C822.242 52.0701 712.296 113.81 677.282 145.424C638.099 172.947 516.815 222.19 345.144 198.982Z" fill="#EBE784"/>
</svg>
