<svg width="1200" height="699" viewBox="0 0 1200 699" fill="none" xmlns="http://www.w3.org/2000/svg">
<path d="M856.856 198.982C1028.53 175.773 1146.14 233.943 1183.49 265.929H1203V691.787C1172.99 701.953 1098.96 709.193 1042.93 656.825C986.91 604.458 865.527 606.987 811.838 614.797C748.645 628.311 609.754 647.23 559.733 614.797C497.207 574.257 436.682 531.857 247.103 541.9C95.4401 549.933 18.5081 466.894 -1 424.37V0C6.16968 21.8198 60.4255 63.9718 220.092 58.0209C379.758 52.0701 489.704 113.81 524.718 145.424C563.901 172.947 685.185 222.19 856.856 198.982Z" fill="#B1DCAE"/>
</svg>
